<svg width="310" height="297" xmlns="http://www.w3.org/2000/svg">
 <g fill="white">
  <g id="svg_1">
   <path id="svg_2" d="m143.887622,0.394576c21.2,0 42.3,-0.4 63.5,0.1c21.1,0.5 42.1,1.8 63.2,2.9c18.8,1 38.4,22 38.4,40.9c0,5.7 -1,11.4 -1.5,17.1c-0.4,5.1 -2,10.4 -0.9,15.2c5.3,23.6 2.1,46.8 0.2,70.5c-2.1,26.8 -0.6,53.8 -1.3,80.8c-0.4,14 -1.7,28 -3.9,41.8c-2.2,14 -11.8,21.1 -25.4,23.8c-19.1,3.8 -37.9,4.5 -57,0.2c-2.5,-0.6 -5.1,-0.3 -7.7,-0.3c-51.8,-1.3 -103.7,-2.9 -155.5,-3.8c-12.4,-0.2 -23.7,-1.8 -34.7,-8.2c-6.6,-3.8 -12.3,-7.9 -13.7,-15c-2.4,-12.4 -5.4,-25.2 -4.5,-37.6c1.5,-19.9 1.1,-39.3 -0.8,-59.1c-2.6,-27.3 -3.9,-54.9 1.2,-82.3c1.6,-8.7 0.9,-17.9 1.6,-26.8c0.9,-11.4 1.3,-23.1 3.6,-34.2c2,-9.5 7.1,-16.4 18.5,-18.9c38.7,-8.8 77.7,-7.7 116.7,-7.1zm115.2,176.8c28.9,-26.1 36.5,-58.3 26.9,-95.2c-0.7,-2.7 -3.1,-7.2 -4.2,-7c-5,0.6 -10.5,2.1 -11,8.5c-0.4,5.1 0,10.2 0.4,15.3c1.4,21.9 -1.5,43.2 -8.6,63.9c-1.6,4.7 -4.9,15.2 -4.9,15.2s-0.3,0.8 -0.4,1.2c0.6,-0.7 1.2,-1.3 1.8,-1.9zm-200,36c17,-2.1 34.1,-3.7 51,-6.4c14.4,-2.3 28.6,-6 42.9,-9.1c2.5,-0.5 4.8,-1.6 7.2,-2.5c-1.7,-1.6 -3.3,-3.3 -5.2,-4.7c-5.7,-4.1 -11.9,-7.6 -17.3,-12c-10.9,-8.9 -19.8,-19.5 -25.8,-32.4c-11.8,-25.6 -9.8,-50.8 2,-75.7c10.2,-21.4 26.1,-37.6 46.3,-49.8c1.6,-0.9 2.9,-2.4 4.3,-3.5c-1.8,-0.4 -3.7,-1.1 -5.5,-1.1c-33.9,0.1 -67.8,0.3 -101.8,0.6c-3.8,0 -7.5,1.5 -11.3,1.7c-14,0.5 -20.1,8.9 -22.5,21.5c-0.7,3.7 -2.1,7.5 -2.1,11.2c0,18.9 -3.1,37.5 -1.7,56.8c2,29.1 -1.2,58.6 -2.2,87.9c-0.2,4.5 -0.2,9 -0.2,13.4c0,5 2.8,6.4 7.5,5.8c11.4,-1.6 34.3,-2.6 34.4,-1.7zm83.2,-165.8c-1.9,1.4 -3.7,2.2 -4.8,3.6c-10.1,13.5 -16.7,28.6 -20.2,45c-1.3,5.9 -0.2,11.3 4.7,15.7c14.1,12.9 27.3,26.7 42.1,38.6c13.7,11.1 14.4,10.3 22.6,-6.2c3.1,-6.3 6.5,-12.5 9.3,-18.9c5.5,-12.6 5,-12.2 -4.7,-21.8c-9.5,-9.4 -18.3,-19.5 -27,-29.7c-5.8,-6.8 -10.8,-14.2 -16.4,-21.2c-1.4,-1.9 -3.6,-3.3 -5.6,-5.1zm118.1,70.6c-1.5,-8.1 -2.3,-16.3 -4.5,-24.1c-2.8,-9.9 -7.1,-10.8 -14.3,-4.1c-1.4,1.3 -2.6,2.8 -3.8,4.2c-20.6,23.7 -33.7,52.3 -51,78.2c-2.1,3.1 -3.1,7 -4.9,10.3c-3.2,5.6 -2.9,8.4 4.4,10.7c17.6,5.6 33.8,-0.2 50.1,-4.7c3.1,-0.9 6.3,-4.7 7.5,-7.9c7.6,-20.2 16.8,-40 16.5,-62.6zm-243.2,124.3c0.1,10.9 2,12.6 11.3,10.9c63.3,-11.3 126.6,-22.6 189.9,-34.1c15,-2.7 30,-5.9 44.8,-9.6c2.7,-0.7 6,-5 6.3,-7.8c0.4,-5.1 -4.3,-5.5 -8.3,-5c-3.8,0.5 -7.4,1.8 -11.2,2.4c-33.9,5.6 -67.7,11.9 -101.8,16.5c-28.4,3.8 -57.1,5.4 -85.6,8.7c-12,1.4 -23.7,5.1 -35.7,6.4c-9,0.9 -10.6,5.5 -9.7,11.6zm214.3,-207.2c-17.8,3.2 -36.4,15.4 -50.7,34.3c-1.2,1.6 -0.3,6.3 1.3,8.2c6.3,7.2 13.1,13.9 20,20.5c7.3,7 8.6,7.6 15.3,-0.3c13.7,-16 30.5,-26.7 50.2,-33.2c1.2,-0.4 2.8,-1 3.2,-2c0.9,-2.6 2.7,-6.5 1.6,-7.9c-8.9,-11.1 -18.9,-20.8 -40.9,-19.6zm34.5,-18.6c-7.2,0 -9.7,-0.1 -12.2,0c-2.5,0.1 -5,0.5 -7.5,0.8c1.8,2.4 3.1,5.4 5.4,7.1c16.6,12.1 31.8,25.3 40.1,44.8c1,2.2 2.9,4 4.4,5.9c0.4,-2.4 1.3,-4.9 1.1,-7.3c-0.9,-10 -3,-20 -3.1,-30.1c-0.1,-11.4 -8.7,-15.1 -16.1,-19.1c-4.7,-2.5 -11,-2 -12.1,-2.1zm-94.2,156.1c-0.3,-0.5 -1.2,-4.2 -3.5,-6.1c-16.2,-13.2 -32.7,-26.2 -49.2,-39.1c-1.2,-0.9 -2.9,-1.1 -4.4,-1.7c-0.1,1.2 -0.6,2.5 -0.3,3.6c7,27.4 27.4,43.3 49.5,57.7c3.5,2.3 5.9,0.1 6.5,-3.8c0.4,-2.5 0.6,-5 1.4,-10.6zm35,-149c-17.5,-0.1 -33.4,5.6 -48.7,13.8c-4.1,2.2 -5.8,4.3 -3,8.6c2,3.2 3.5,6.7 5.6,9.9c3.3,5.1 7.4,6.4 12.7,2.4c14.3,-10.5 28.7,-20.8 43,-31.2c0.8,-0.6 1.2,-1.8 1.7,-2.7c-1.2,-0.3 -2.4,-0.8 -3.7,-0.8c-2.5,-0.1 -5,0 -7.6,0zm-120.2,246.1c0.1,0.1 2.3,4.9 3.7,4.7c11.9,-1.9 23.7,-4.2 35.4,-7.3c5.8,-1.5 8.3,-9.2 5.8,-16c-2.6,-7.1 -7.4,-1.7 -11.1,-1.1c-8.1,1.3 -16.2,3.5 -24.4,4.1c-8.7,0.5 -11.1,4.7 -9.4,15.6zm191.9,-36.7c-0.1,0 -0.1,0 -0.2,0c0,12.1 -0.1,24.2 0.1,36.3c0,1.8 0.9,3.6 1.4,5.4c2.1,-1.1 5.3,-1.6 6.2,-3.3c2,-3.7 4,-8.1 3.9,-12.1c-1,-21.5 -2.6,-43 -4.1,-64.5c-0.1,-1.6 -1.7,-3 -2.6,-4.6c-1.5,1.5 -4.4,3 -4.4,4.6c-0.4,12.7 -0.3,25.5 -0.3,38.2zm-83.3,9.7c-3.5,-2.9 -5.7,-6.2 -7.4,-5.9c-12.5,1.8 -25,4.1 -37.5,6.6c-5.9,1.2 -7.9,6 -5.9,13.4c1.6,6.2 5.5,3 8.9,2.1c11,-3 22.2,-5.6 33.1,-8.9c2.9,-1 5,-4.1 8.8,-7.3zm-135,36.1c12.8,-0.9 14.4,-2.6 13.8,-15.7c-0.2,-3.9 0.1,-7.2 -6.1,-5.9c-11.1,2.3 -22.4,3.3 -33.7,5c-1.3,0.2 -2.7,1.6 -3.5,2.8c-0.3,0.5 1,2.6 1.9,3c9.2,3.8 18.4,7.3 27.6,10.8zm164.3,-25c-6,0.9 -10.4,1.4 -14.7,2.4c-8.4,1.9 -8.4,8.5 -7.8,15c0.7,8 7,5.9 11.6,5.5c4.3,-0.4 8.5,-2.1 12.8,-3.3c8.2,-2.3 5.8,-9 4.9,-14.1c-0.6,-2.4 -4.9,-4.1 -6.8,-5.5zm-59.3,22.6c6.3,0 12.7,0.2 19,-0.1c5.1,-0.2 5.6,-4.3 5.5,-8.2c-0.2,-5.4 -3.9,-5.8 -8,-5.1c-5.6,1 -11.4,1.5 -16.6,3.5c-6.5,2.6 -15,0.2 -19.7,7.5c6.6,1.2 19.7,2.8 19.8,2.4zm44.4,-28.7c6.9,-2.5 13.1,-3.8 18.3,-7c2.3,-1.4 2.9,-6.5 2.9,-10c0,-0.9 -5.2,-2.8 -7.8,-2.6c-5,0.4 -9.8,2.5 -14.7,3.1c-6.2,0.8 -7.5,4.8 -6,9.3c0.9,2.8 4.5,4.6 7.3,7.2zm52.2,-1.8c-5.2,1.7 -10.9,2.1 -14.4,5.1c-3.1,2.7 -3.7,8.3 -5.4,12.7c3.5,-0.1 7.1,0.3 10.5,-0.4c4.3,-0.9 8.9,-2 12.4,-4.4c2.4,-1.7 4,-5.6 4.4,-8.8c0.1,-1.1 -4.7,-2.7 -7.5,-4.2zm5.7,-16.4c-2.1,-2.6 -3.3,-5.1 -4.2,-5c-3.7,0.4 -7.2,1.6 -10.8,2.5c-4.7,1.2 -12.6,1.5 -10.8,7.6c2.4,8.2 9.2,1.8 13.8,0.6c3.9,-1.1 7.4,-3.5 12,-5.7zm27.1,-64.2c-1.2,-1.9 -2.1,-5.1 -3.8,-5.5c-1.8,-0.5 -4.9,1 -6.5,2.5c-1.7,1.7 -3,4.3 -3.4,6.7c-0.6,3.4 -0.4,7 -0.5,10.6c3.9,-1.5 8.4,-2.4 11.4,-4.9c2,-1.6 1.9,-5.7 2.8,-9.4zm-34.7,112.1c1.9,-0.3 4.9,-0.6 7.8,-1.3c0.3,-0.1 0.8,-2.3 0.3,-2.9c-3.6,-4.7 -7.6,-2 -11.6,-0.3c-2.2,1 -4.4,1.9 -6.7,2.8c1.1,0.5 2.2,1.1 3.4,1.3c1.9,0.3 3.8,0.2 6.8,0.4z"/>
   <path id="svg_3" d="m97.687622,57.194576c2.2,1.1 3.7,1.8 5.2,2.6c-0.9,0.9 -1.6,1.9 -2.6,2.6c-2,1.6 -3.9,3.4 -6.2,4.5c-18.1,8.6 -33,21.5 -47,35.5c-1.5,1.5 -4.1,2 -6.2,3c-0.1,-2.3 -1.3,-5.3 -0.3,-6.9c13.7,-21.2 33.1,-34.6 57.1,-41.3z"/>
   <path id="svg_4" d="m45.487622,142.194576c-0.8,-2.1 -2.3,-4 -1.8,-5c3.3,-6.8 6,-14.3 10.8,-20c9.4,-11.2 19.9,-21.4 30.3,-31.7c1.1,-1 4.5,0.4 6.9,0.7c-0.7,1.6 -1,3.5 -2.1,4.8c-13,15.7 -26,31.4 -39.2,47c-1.2,1.4 -2.8,2.5 -4.9,4.2z"/>
   <path id="svg_5" d="m50.387622,194.494576c-0.9,-0.5 -2.3,-0.8 -2.7,-1.5c-0.5,-1 -0.6,-2.7 -0.1,-3.7c9.5,-19.5 19.1,-38.9 28.9,-58.3c0.5,-1 2.9,-0.9 4.4,-1.4c0,1.2 0.5,2.5 0,3.5c-9.1,19.7 -18.3,39.3 -27.5,59c-0.6,1 -2,1.6 -3,2.4z"/>
   <path id="svg_6" d="m161.687622,117.694576c-2.1,0.7 -4.1,2 -5.2,1.5c-2.7,-1.2 -6,-2.8 -7,-5.1c-0.8,-2 1.4,-5.1 2.3,-7.8c1.9,0.9 4.4,1.4 5.6,2.8c1.8,2.3 2.8,5.4 4.3,8.6z"/>
   <path id="svg_7" d="m233.587622,138.694576c2.2,-2.3 4.4,-4.8 6.7,-7.2c1,1.2 3.1,3.3 3,3.5c-2.2,2.5 -4.7,4.8 -7.1,7.1c-0.7,-0.9 -1.3,-1.7 -2.6,-3.4z"/>
   <path id="svg_8" d="m221.287622,164.694576c-1.1,1.2 -2.6,2.7 -4.2,4.3c-0.8,-0.7 -2.3,-2 -2.2,-2.2c1.4,-2.3 3.1,-4.5 4.7,-6.7c0.5,1.1 0.9,2.3 1.7,4.6z"/>
   <path id="svg_9" d="m226.187622,80.894576c-4,2.8 -6.2,4.3 -8.4,5.9c-1.5,-2.4 -3.8,-4.7 -4.3,-7.3c-0.3,-1.4 3.1,-5 3.5,-4.9c2.8,1.5 5.3,3.6 9.2,6.3z"/>
  </g>
 </g>
</svg>