<svg xmlns="http://www.w3.org/2000/svg" height="36.797" viewBox="0 0 209.744 36.797" width="209.74"><path d="M9.774 27.928l1.019-4.39a34.648 34.648 0 0 0-3.123-.078l-2.843 9.072s16.163-8.407 26.23 4.231c-.018-.039-.038-.074-.056-.111-.719-1.24-6.739-10.745-21.227-8.724z" fill="#777"/><path d="M31.066 36.768c-.153-.578-3.666-13.102-19.522-16.149a36.15 36.15 0 0 0-2.852-.425c-.114-.012-.223-.03-.339-.041l1.981-3.941a42.482 42.482 0 0 0-3.858-.856L1.16 24.191s2.68-.656 6.51-.731c.976-.019 2.022 0 3.123.078 6.824.481 15.558 3.219 20.208 13.114.018.037.039.072.056.111.005.012.012.021.017.032l-.006-.019-.002-.008z" fill="#E6007E"/><path d="M11.971 12.959a41.816 41.816 0 0 0-2.703-1.001l2.254-2.763 4.48-5.494s5.823-1.557 17.796 8.447c0 0-7.683-11.287-19.779-12.148L0 14.758s2.679-.059 6.476.597c1.191.206 2.494.486 3.858.856 7.888 2.146 17.872 7.451 20.741 20.586 0 0-.488-16.283-19.104-23.838z" fill="#398CCB"/><path d="M36.872 36.75V19.646c0-.344.03-.685.094-1.021.062-.337.221-.765.475-1.284a4.506 4.506 0 0 1 1.034-1.372c.436-.394 1.089-.734 1.961-1.021.872-.284 1.882-.428 3.034-.428.591 0 1.17.052 1.734.155.565.104 1.183.338 1.852.701.67.364 1.248.836 1.735 1.418.488.582.896 1.399 1.224 2.454.326 1.054.489 2.271.489 3.652 0 1.58-.216 2.927-.646 4.043-.432 1.117-1.025 1.945-1.783 2.483-.757.541-1.527.929-2.312 1.161a9.095 9.095 0 0 1-2.591.352 12.14 12.14 0 0 1-3.388-.469v6.278l-2.912.002zm2.913-9.066a9.333 9.333 0 0 0 3.388.64c.655 0 1.215-.062 1.678-.188s.919-.364 1.366-.717c.446-.354.789-.905 1.022-1.66.234-.752.351-1.704.351-2.858 0-1.234-.116-2.26-.351-3.075-.233-.815-.569-1.41-1.008-1.784-.437-.374-.869-.628-1.295-.763a4.834 4.834 0 0 0-1.467-.203c-2.457 0-3.685.795-3.685 2.384l.001 8.224zm13.036 3.005V16.108c2.657-1.06 5.244-1.589 7.757-1.589v2.68a20.373 20.373 0 0 0-4.844.67v12.82h-2.913zm10.494-18.382V9.223h3.101v3.084h-3.101zm.093 18.382v-15.92h2.913v15.92h-2.913zm6.174 0V16.121c2.209-1.089 4.471-1.633 6.784-1.633 2.018 0 3.598.524 4.741 1.573 1.145 1.05 1.716 2.503 1.716 4.361V30.69h-2.975V20.197c0-.938-.24-1.676-.718-2.217-.479-.542-1.442-.812-2.889-.812-1.302 0-2.551.192-3.746.577v12.944h-2.913zm15.151-13.427v-2.493h2.771v-4.72h2.914v4.72h4.236v2.493h-4.236v9.202c0 1.238.784 1.858 2.354 1.858h.03c.727 0 1.345-.155 1.853-.465v2.641a5.768 5.768 0 0 1-2.181.441h-.077c-.385 0-.795-.047-1.23-.141-.437-.093-.958-.277-1.565-.552-.608-.274-1.109-.752-1.503-1.431-.396-.68-.594-1.521-.594-2.525v-9.03h-2.772v.002z" fill="#777"/><path d="M96.845 22.918c0-5.599 2.343-8.398 7.026-8.398h.03c2.129 0 3.831.695 5.103 2.087 1.271 1.39 1.908 3.252 1.908 5.588 0 .76-.03 1.488-.095 2.187h-11c.354 2.731 1.851 4.097 4.488 4.097 2.149 0 3.982-.397 5.5-1.195v2.65c-1.643.692-3.496 1.039-5.562 1.039h-.095c-.935 0-1.797-.117-2.586-.352s-1.557-.622-2.305-1.163c-.746-.541-1.337-1.37-1.769-2.489-.436-1.119-.651-2.47-.651-4.051zm2.928-1.154h8.178a7.693 7.693 0 0 0-.271-1.519 6.819 6.819 0 0 0-.641-1.473 3.101 3.101 0 0 0-1.236-1.192c-.542-.296-1.185-.443-1.933-.443-1.34 0-2.324.346-2.952 1.036-.63.691-1.013 1.888-1.147 3.591zm13.977 8.925V16.121c2.209-1.089 4.47-1.633 6.784-1.633 2.017 0 3.597.524 4.74 1.573 1.145 1.05 1.715 2.503 1.715 4.361V30.69h-2.973V20.197c0-.938-.24-1.676-.719-2.217-.48-.542-1.441-.812-2.891-.812-1.301 0-2.549.192-3.746.577v12.944h-2.9z" fill="#398CCB"/><path d="M129.89 25.784V8.714h2.913v6.278a12.292 12.292 0 0 1 3.405-.473c.911 0 1.759.111 2.547.335.786.223 1.559.609 2.312 1.161.756.55 1.348 1.379 1.776 2.484.431 1.106.646 2.449.646 4.028 0 1.4-.163 2.629-.489 3.684s-.726 1.872-1.202 2.453a5.761 5.761 0 0 1-1.718 1.418c-.666.363-1.281.598-1.847.7a9.691 9.691 0 0 1-1.762.155c-1.154 0-2.164-.143-3.025-.429-.864-.284-1.514-.625-1.95-1.02-.437-.396-.783-.856-1.038-1.386s-.412-.967-.477-1.31a6.902 6.902 0 0 1-.08-1.008zm2.91.167c0 1.581 1.224 2.371 3.671 2.371.549 0 1.034-.066 1.459-.201.426-.135.855-.389 1.291-.76.437-.371.771-.967 1.004-1.781.232-.814.349-1.833.349-3.053 0-1.146-.115-2.094-.349-2.842-.233-.75-.567-1.301-1.004-1.65a3.672 3.672 0 0 0-1.353-.713c-.466-.123-1.021-.187-1.663-.187a8.872 8.872 0 0 0-3.405.666v8.15zm13.78-13.644V9.223h3.1v3.084h-3.1zm.09 18.382v-15.92h2.913v15.92h-2.91zm6.81 0V16.121c2.207-1.089 4.469-1.633 6.783-1.633 2.018 0 3.596.524 4.74 1.573 1.145 1.05 1.715 2.503 1.715 4.361V30.69h-2.976V20.197c0-.938-.239-1.676-.718-2.217-.479-.542-1.441-.812-2.887-.812-1.302 0-2.553.192-3.748.577v12.944h-2.9zm15.54-8.162c0-1.578.217-2.922.653-4.027.437-1.105 1.031-1.935 1.786-2.484.752-.552 1.525-.938 2.316-1.161a9.337 9.337 0 0 1 2.556-.335c1.151 0 2.286.157 3.403.473V8.739h2.914V25.79c0 .342-.033.683-.102 1.019-.066.338-.229.771-.482 1.301-.252.527-.599.99-1.033 1.385-.438.395-1.086.732-1.946 1.02-.858.284-1.86.428-3.002.428-.613 0-1.203-.053-1.771-.156s-1.187-.337-1.855-.7a5.75 5.75 0 0 1-1.725-1.418c-.477-.581-.885-1.397-1.217-2.453-.34-1.057-.5-2.286-.5-3.689zm2.91 0c0 1.229.116 2.25.35 3.061s.566 1.402 1.003 1.773c.436.371.866.625 1.29.76.428.135.929.201 1.51.201 2.445 0 3.664-.79 3.652-2.371v-8.148a8.856 8.856 0 0 0-3.404-.666c-.633 0-1.186.062-1.656.186s-.93.362-1.375.713-.785.901-1.02 1.649c-.24.751-.35 1.697-.35 2.842z" fill="#777"/><path d="M183.99 30.689v-2.772h2.976v2.772h-2.98zm6.28 0V16.121c2.209-1.089 4.472-1.633 6.785-1.633 2.016 0 3.598.524 4.739 1.573 1.146 1.05 1.718 2.503 1.718 4.361V30.69h-2.976V20.197c0-.938-.24-1.676-.72-2.217-.479-.542-1.44-.812-2.889-.812-1.301 0-2.549.192-3.746.577v12.944h-2.91zm16.56 0V8.708h2.912v21.981h-2.91z" fill="#398CCB"/></svg>